<svg width="120" height="40" viewBox="0 0 120 40" fill="none" xmlns="http://www.w3.org/2000/svg">
<g clip-path="url(#clip0_9114_5400)">
<path d="M110.133 0.00013H9.53261C9.1659 0.00013 8.80361 0.00013 8.43787 0.00213C8.13172 0.00413 7.82801 0.00994 7.51892 0.01483C6.84744 0.0227318 6.17753 0.0818063 5.51502 0.19154C4.85345 0.303663 4.2126 0.515046 3.61414 0.81854C3.01642 1.1246 2.47027 1.5223 1.99549 1.9972C1.51823 2.47077 1.12039 3.01815 0.817275 3.61829C0.513325 4.21724 0.302565 4.85907 0.192275 5.52161C0.0809357 6.18332 0.0210232 6.85265 0.0130748 7.52361C0.00379481 7.83021 0.0028148 8.13783 -0.0020752 8.44447V31.5587C0.0028148 31.8692 0.00379481 32.17 0.0130748 32.4806C0.0210256 33.1516 0.0809382 33.8209 0.192275 34.4825C0.302261 35.1455 0.513033 35.7877 0.817275 36.3868C1.12025 36.985 1.51815 37.5302 1.99549 38.0011C2.46847 38.4781 3.01498 38.8761 3.61414 39.1798C4.21259 39.4841 4.85337 39.6968 5.51502 39.8106C6.17764 39.9195 6.84748 39.9786 7.51892 39.9874C7.82801 39.9942 8.13172 39.9981 8.43787 39.9981C8.80359 40.0001 9.16593 40.0001 9.53261 40.0001H110.133C110.492 40.0001 110.857 40.0001 111.217 39.9981C111.521 39.9981 111.834 39.9942 112.139 39.9874C112.809 39.9791 113.477 39.92 114.139 39.8106C114.802 39.696 115.445 39.4834 116.047 39.1798C116.645 38.8759 117.191 38.478 117.664 38.0011C118.14 37.5284 118.539 36.9836 118.846 36.3868C119.148 35.7872 119.356 35.1451 119.465 34.4825C119.576 33.8208 119.638 33.1516 119.65 32.4806C119.654 32.17 119.654 31.8692 119.654 31.5587C119.662 31.1954 119.662 30.8341 119.662 30.4649V9.53626C119.662 9.17005 119.662 8.80677 119.654 8.44447C119.654 8.13783 119.654 7.83021 119.65 7.52357C119.638 6.85255 119.576 6.18337 119.465 5.52157C119.356 4.85941 119.147 4.21763 118.846 3.61825C118.228 2.41533 117.249 1.43616 116.047 0.81845C115.445 0.515697 114.802 0.30437 114.139 0.19145C113.477 0.0812328 112.809 0.0221378 112.139 0.01469C111.834 0.00981 111.521 0.00395 111.217 0.002C110.857 0 110.492 0.00013 110.133 0.00013Z" fill="#A6A6A6"/>
<path d="M8.44365 39.124C8.13897 39.124 7.84165 39.1201 7.53936 39.1133C6.91314 39.1052 6.28838 39.0506 5.67022 38.9502C5.09381 38.8509 4.53542 38.6663 4.01348 38.4023C3.49632 38.1405 3.02463 37.7973 2.61648 37.3857C2.20242 36.979 1.85769 36.5073 1.59597 35.9892C1.33136 35.4678 1.14823 34.9089 1.05297 34.332C0.950091 33.7121 0.894431 33.0853 0.886466 32.457C0.880126 32.2461 0.871826 31.5439 0.871826 31.5439V8.44336C0.871826 8.44336 0.880666 7.75195 0.886516 7.54882C0.894142 6.92151 0.949478 6.29568 1.05205 5.67675C1.14748 5.09827 1.33075 4.53777 1.59551 4.01465C1.85627 3.49697 2.19908 3.02488 2.61065 2.6167C3.02175 2.20464 3.49495 1.85963 4.01299 1.59423C4.53373 1.33112 5.09106 1.14776 5.66631 1.05029C6.2865 0.94886 6.91343 0.89402 7.54182 0.886233L8.44414 0.874023H111.213L112.126 0.886723C112.748 0.894123 113.37 0.948473 113.984 1.04931C114.565 1.148 115.128 1.33264 115.655 1.59716C116.693 2.13201 117.537 2.97819 118.07 4.01709C118.331 4.5366 118.511 5.09253 118.605 5.66601C118.709 6.29001 118.767 6.92076 118.779 7.55322C118.782 7.83642 118.782 8.14062 118.782 8.44336C118.79 8.81836 118.79 9.17529 118.79 9.53515V30.4638C118.79 30.8271 118.79 31.1816 118.782 31.539C118.782 31.8642 118.782 32.1621 118.778 32.4687C118.766 33.0899 118.709 33.7094 118.607 34.3222C118.514 34.9033 118.332 35.4665 118.067 35.9922C117.804 36.5046 117.461 36.9723 117.052 37.3779C116.643 37.7917 116.171 38.137 115.652 38.4004C115.127 38.6664 114.565 38.8518 113.984 38.9502C113.366 39.0512 112.741 39.1057 112.115 39.1133C111.822 39.1201 111.515 39.124 111.218 39.124L110.134 39.126L8.44365 39.124Z" fill="black"/>
<path d="M24.7617 20.2998C24.7724 19.4652 24.9941 18.6468 25.4062 17.9208C25.8182 17.1949 26.4071 16.585 27.1182 16.1478C26.6665 15.5026 26.0705 14.9717 25.3777 14.5971C24.6849 14.2226 23.9143 14.0147 23.1271 13.9901C21.4478 13.8138 19.8199 14.9949 18.9642 14.9949C18.0919 14.9949 16.7744 14.0076 15.3557 14.0368C14.438 14.0664 13.5436 14.3333 12.7598 14.8114C11.9759 15.2894 11.3292 15.9624 10.8827 16.7647C8.94875 20.1131 10.3913 25.0341 12.2439 27.7407C13.1708 29.0661 14.2541 30.5465 15.6716 30.494C17.0586 30.4365 17.5767 29.6096 19.251 29.6096C20.9097 29.6096 21.3958 30.494 22.842 30.4607C24.3304 30.4365 25.2681 29.1294 26.1625 27.7915C26.8285 26.8472 27.3409 25.8034 27.6809 24.699C26.8162 24.3333 26.0783 23.7211 25.5592 22.9388C25.04 22.1565 24.7627 21.2387 24.7617 20.2998Z" fill="white"/>
<path d="M22.0293 12.2113C22.8408 11.2371 23.2406 9.98494 23.1438 8.7207C21.904 8.85092 20.7587 9.44348 19.9362 10.3803C19.5341 10.838 19.2261 11.3704 19.0298 11.9472C18.8336 12.524 18.7529 13.1337 18.7925 13.7417C19.4126 13.7481 20.0261 13.6137 20.5868 13.3486C21.1475 13.0835 21.6407 12.6946 22.0293 12.2113Z" fill="white"/>
<path d="M42.296 27.1402H37.5626L36.4259 30.4966H34.421L38.9044 18.0786H40.9874L45.4708 30.4966H43.4318L42.296 27.1402ZM38.0529 25.5913H41.8049L39.9552 20.1441H39.9035L38.0529 25.5913Z" fill="white"/>
<path d="M55.1515 25.969C55.1515 28.7824 53.6457 30.5901 51.3732 30.5901C50.7975 30.6202 50.225 30.4876 49.7213 30.2074C49.2175 29.9273 48.8027 29.5109 48.5246 29.0061H48.4816V33.4904H46.6232V21.4416H48.422V22.9475H48.4562C48.7472 22.445 49.1689 22.0308 49.6765 21.749C50.1842 21.4671 50.7587 21.3282 51.339 21.3469C53.6368 21.3469 55.1515 23.1633 55.1515 25.969ZM53.2414 25.969C53.2414 24.136 52.2941 22.9309 50.8488 22.9309C49.4289 22.9309 48.4738 24.1613 48.4738 25.969C48.4738 27.7932 49.4289 29.0149 50.8488 29.0149C52.2941 29.0149 53.2414 27.8186 53.2414 25.969Z" fill="white"/>
<path d="M65.1173 25.969C65.1173 28.7824 63.6115 30.59 61.339 30.59C60.7634 30.6202 60.1909 30.4876 59.6871 30.2074C59.1833 29.9273 58.7686 29.5109 58.4904 29.006H58.4474V33.4904H56.589V21.4416H58.3878V22.9475H58.422C58.7129 22.445 59.1347 22.0308 59.6423 21.749C60.1499 21.4671 60.7245 21.3282 61.3048 21.3469C63.6027 21.3469 65.1173 23.1633 65.1173 25.969ZM63.2072 25.969C63.2072 24.136 62.2599 22.9309 60.8146 22.9309C59.3947 22.9309 58.4396 24.1613 58.4396 25.969C58.4396 27.7932 59.3947 29.0149 60.8146 29.0149C62.2599 29.0149 63.2072 27.8186 63.2072 25.969Z" fill="white"/>
<path d="M71.7043 27.0362C71.842 28.2676 73.0383 29.0762 74.673 29.0762C76.2394 29.0762 77.3664 28.2676 77.3664 27.1572C77.3664 26.1934 76.6867 25.6162 75.0773 25.2207L73.4679 24.833C71.1877 24.2822 70.1291 23.2158 70.1291 21.4854C70.1291 19.3428 71.9963 17.8711 74.6476 17.8711C77.2716 17.8711 79.0705 19.3428 79.131 21.4854H77.255C77.1427 20.2461 76.1183 19.4981 74.6212 19.4981C73.1242 19.4981 72.0997 20.2549 72.0997 21.3565C72.0997 22.2344 72.754 22.751 74.3546 23.1465L75.7228 23.4824C78.2706 24.0849 79.3292 25.1084 79.3292 26.9248C79.3292 29.248 77.4786 30.7031 74.5353 30.7031C71.7814 30.7031 69.922 29.2822 69.8019 27.0361L71.7043 27.0362Z" fill="white"/>
<path d="M83.3395 19.3018V21.4443H85.0611V22.916H83.3395V27.9072C83.3395 28.6826 83.6842 29.0439 84.441 29.0439C84.6454 29.0404 84.8495 29.026 85.0524 29.0009V30.4638C84.7121 30.5274 84.3662 30.5562 84.0201 30.5498C82.1871 30.5498 81.4723 29.8613 81.4723 28.1054V22.916H80.1559V21.4443H81.4723V19.3018H83.3395Z" fill="white"/>
<path d="M86.0592 25.9717C86.0592 23.123 87.7369 21.333 90.3531 21.333C92.9781 21.333 94.6481 23.123 94.6481 25.9717C94.6481 28.8281 92.9869 30.6103 90.3531 30.6103C87.7203 30.6103 86.0592 28.8281 86.0592 25.9717ZM92.7545 25.9717C92.7545 24.0176 91.859 22.8643 90.3531 22.8643C88.8473 22.8643 87.9528 24.0264 87.9528 25.9717C87.9528 27.9336 88.8473 29.0781 90.3531 29.0781C91.859 29.0781 92.7545 27.9336 92.7545 25.9717Z" fill="white"/>
<path d="M96.1788 21.4415H97.9513V22.9825H97.9943C98.1142 22.5012 98.3962 22.0759 98.7928 21.778C99.1893 21.4801 99.6764 21.3279 100.172 21.3468C100.386 21.346 100.6 21.3693 100.809 21.4161V23.1544C100.538 23.0718 100.256 23.0339 99.9738 23.0421C99.7038 23.0312 99.4346 23.0788 99.1848 23.1816C98.9349 23.2845 98.7103 23.4403 98.5263 23.6382C98.3424 23.836 98.2034 24.0714 98.119 24.3281C98.0345 24.5847 98.0067 24.8566 98.0372 25.1251V30.4952H96.1788L96.1788 21.4415Z" fill="white"/>
<path d="M109.378 27.8389C109.128 29.4824 107.527 30.6103 105.479 30.6103C102.845 30.6103 101.211 28.8457 101.211 26.0146C101.211 23.1748 102.854 21.333 105.401 21.333C107.906 21.333 109.481 23.0537 109.481 25.7988V26.4355H103.087V26.5478C103.057 26.881 103.099 27.2167 103.209 27.5326C103.319 27.8484 103.495 28.1372 103.726 28.3797C103.956 28.6223 104.235 28.813 104.545 28.9393C104.855 29.0656 105.188 29.1246 105.522 29.1123C105.961 29.1534 106.402 29.0517 106.779 28.8223C107.155 28.5929 107.448 28.2479 107.613 27.8389L109.378 27.8389ZM103.095 25.1367H107.622C107.638 24.8371 107.593 24.5373 107.488 24.2561C107.384 23.9749 107.222 23.7184 107.013 23.5026C106.805 23.2868 106.554 23.1165 106.277 23.0023C105.999 22.8881 105.701 22.8324 105.401 22.8389C105.098 22.8371 104.798 22.8952 104.518 23.0099C104.238 23.1247 103.984 23.2938 103.769 23.5074C103.555 23.721 103.385 23.975 103.269 24.2546C103.154 24.5343 103.095 24.8341 103.095 25.1367Z" fill="white"/>
<path d="M37.8268 8.73236C38.2164 8.7044 38.6074 8.76326 38.9715 8.90469C39.3356 9.04612 39.6638 9.2666 39.9324 9.55023C40.2009 9.83385 40.4032 10.1736 40.5246 10.5448C40.646 10.9161 40.6835 11.3097 40.6344 11.6972C40.6344 13.6034 39.6041 14.6992 37.8268 14.6992H35.6715V8.73236H37.8268ZM36.5983 13.8554H37.7233C38.0017 13.872 38.2803 13.8264 38.5388 13.7217C38.7974 13.6171 39.0293 13.4562 39.2178 13.2506C39.4063 13.045 39.5466 12.8 39.6284 12.5334C39.7103 12.2668 39.7317 11.9853 39.691 11.7094C39.7287 11.4345 39.7052 11.1548 39.6221 10.8901C39.539 10.6254 39.3983 10.3824 39.2103 10.1785C39.0222 9.97456 38.7914 9.81475 38.5343 9.71052C38.2772 9.60628 38.0002 9.5602 37.7233 9.57557H36.5983V13.8554Z" fill="white"/>
<path d="M41.6801 12.4438C41.6518 12.1479 41.6856 11.8493 41.7795 11.5672C41.8733 11.2852 42.0251 11.0258 42.225 10.8059C42.425 10.5859 42.6687 10.4101 42.9405 10.2898C43.2124 10.1696 43.5064 10.1074 43.8036 10.1074C44.1009 10.1074 44.3949 10.1696 44.6667 10.2898C44.9386 10.4101 45.1823 10.5859 45.3822 10.8059C45.5822 11.0258 45.7339 11.2852 45.8278 11.5672C45.9216 11.8493 45.9555 12.1479 45.9272 12.4438C45.956 12.74 45.9226 13.039 45.829 13.3215C45.7354 13.6041 45.5837 13.8639 45.3837 14.0843C45.1837 14.3047 44.9398 14.4808 44.6677 14.6014C44.3956 14.7219 44.1012 14.7842 43.8036 14.7842C43.506 14.7842 43.2117 14.7219 42.9395 14.6014C42.6674 14.4808 42.4235 14.3047 42.2235 14.0843C42.0235 13.8639 41.8719 13.6041 41.7783 13.3215C41.6847 13.039 41.6512 12.74 41.6801 12.4438ZM45.0131 12.4438C45.0131 11.4677 44.5746 10.8969 43.8051 10.8969C43.0326 10.8969 42.5981 11.4677 42.5981 12.4438C42.5981 13.4277 43.0327 13.9941 43.8051 13.9941C44.5746 13.9941 45.0131 13.4238 45.0131 12.4438Z" fill="white"/>
<path d="M51.5738 14.6982H50.652L49.7213 11.3818H49.651L48.7242 14.6982H47.8112L46.5699 10.1953H47.4713L48.278 13.6313H48.3444L49.2701 10.1953H50.1227L51.0485 13.6313H51.1188L51.9215 10.1953H52.8102L51.5738 14.6982Z" fill="white"/>
<path d="M53.8527 10.1963H54.7081V10.9117H54.7745C54.8872 10.6547 55.0772 10.4394 55.3181 10.2956C55.5589 10.1518 55.8387 10.0867 56.1183 10.1094C56.3374 10.0929 56.5574 10.126 56.762 10.2061C56.9666 10.2862 57.1505 10.4113 57.3002 10.5721C57.4499 10.733 57.5615 10.9254 57.6267 11.1352C57.6919 11.3451 57.709 11.5669 57.6769 11.7842V14.6992H56.7882V12.0074C56.7882 11.2837 56.4738 10.9239 55.8165 10.9239C55.6678 10.9169 55.5193 10.9423 55.3812 10.9981C55.2432 11.0539 55.1188 11.1389 55.0167 11.2473C54.9146 11.3557 54.8371 11.4849 54.7896 11.626C54.742 11.7672 54.7256 11.9169 54.7413 12.065V14.6993H53.8527L53.8527 10.1963Z" fill="white"/>
<path d="M59.0919 8.4375H59.9806V14.6982H59.0919V8.4375Z" fill="white"/>
<path d="M61.2186 12.4439C61.1904 12.1479 61.2242 11.8494 61.3181 11.5673C61.412 11.2852 61.5637 11.0259 61.7637 10.8059C61.9637 10.5859 62.2074 10.4101 62.4793 10.2898C62.7511 10.1696 63.0451 10.1074 63.3424 10.1074C63.6397 10.1074 63.9337 10.1696 64.2056 10.2898C64.4775 10.4101 64.7212 10.5859 64.9211 10.8059C65.1211 11.0259 65.2729 11.2852 65.3667 11.5673C65.4606 11.8494 65.4945 12.1479 65.4662 12.4439C65.495 12.7401 65.4615 13.0391 65.3679 13.3216C65.2743 13.6042 65.1226 13.864 64.9226 14.0844C64.7226 14.3048 64.4787 14.4809 64.2065 14.6014C63.9344 14.722 63.6401 14.7842 63.3424 14.7842C63.0448 14.7842 62.7504 14.722 62.4783 14.6014C62.2062 14.4809 61.9623 14.3048 61.7623 14.0844C61.5622 13.864 61.4106 13.6042 61.3169 13.3216C61.2233 13.0391 61.1898 12.7401 61.2186 12.4439ZM64.5516 12.4439C64.5516 11.4678 64.1132 10.897 63.3436 10.897C62.5712 10.897 62.1366 11.4678 62.1366 12.4439C62.1366 13.4278 62.5712 13.9942 63.3436 13.9942C64.1132 13.9942 64.5516 13.4239 64.5516 12.4439Z" fill="white"/>
<path d="M66.4015 13.4238C66.4015 12.6133 67.005 12.146 68.0763 12.0796L69.296 12.0093V11.6206C69.296 11.145 68.9816 10.8765 68.3741 10.8765C67.8781 10.8765 67.5343 11.0586 67.4357 11.377H66.5753C66.6661 10.6035 67.3937 10.1074 68.4152 10.1074C69.5441 10.1074 70.1808 10.6694 70.1808 11.6206V14.6973H69.3253V14.0645H69.255C69.1123 14.2914 68.9119 14.4765 68.6743 14.6007C68.4366 14.7249 68.1703 14.7838 67.9025 14.7715C67.7134 14.7911 67.5224 14.7709 67.3416 14.7122C67.1609 14.6535 66.9944 14.5576 66.853 14.4307C66.7116 14.3037 66.5983 14.1485 66.5206 13.9751C66.4428 13.8017 66.4022 13.6139 66.4015 13.4238ZM69.296 13.0391V12.6626L68.1964 12.7329C67.5763 12.7744 67.295 12.9853 67.295 13.3823C67.295 13.7876 67.6466 14.0234 68.13 14.0234C68.2717 14.0378 68.4148 14.0235 68.5508 13.9814C68.6868 13.9393 68.8129 13.8703 68.9217 13.7784C69.0305 13.6866 69.1197 13.5738 69.184 13.4468C69.2483 13.3198 69.2864 13.1811 69.296 13.0391Z" fill="white"/>
<path d="M71.3478 12.4448C71.3478 11.022 72.0792 10.1206 73.2169 10.1206C73.4983 10.1077 73.7776 10.1751 74.0222 10.315C74.2667 10.4548 74.4663 10.6615 74.5978 10.9106H74.6642V8.4375H75.5529V14.6982H74.7013V13.9868H74.631C74.4894 14.2343 74.2828 14.4383 74.0335 14.5768C73.7843 14.7153 73.5019 14.783 73.2169 14.7724C72.0714 14.7725 71.3478 13.8711 71.3478 12.4448ZM72.2658 12.4448C72.2658 13.3999 72.716 13.9746 73.4689 13.9746C74.2179 13.9746 74.6808 13.3916 74.6808 12.4487C74.6808 11.5103 74.2131 10.919 73.4689 10.919C72.7208 10.919 72.2658 11.4976 72.2658 12.4448Z" fill="white"/>
<path d="M79.2314 12.4438C79.2031 12.1479 79.2369 11.8493 79.3307 11.5672C79.4246 11.2852 79.5763 11.0258 79.7763 10.8059C79.9762 10.5859 80.2199 10.4101 80.4918 10.2898C80.7636 10.1696 81.0576 10.1074 81.3549 10.1074C81.6522 10.1074 81.9461 10.1696 82.218 10.2898C82.4899 10.4101 82.7336 10.5859 82.9335 10.8059C83.1334 11.0258 83.2852 11.2852 83.379 11.5672C83.4729 11.8493 83.5067 12.1479 83.4784 12.4438C83.5073 12.74 83.4738 13.039 83.3802 13.3215C83.2866 13.6041 83.135 13.8639 82.935 14.0843C82.735 14.3047 82.4911 14.4808 82.219 14.6014C81.9468 14.7219 81.6525 14.7842 81.3549 14.7842C81.0573 14.7842 80.7629 14.7219 80.4908 14.6014C80.2187 14.4808 79.9748 14.3047 79.7748 14.0843C79.5748 13.8639 79.4231 13.6041 79.3295 13.3215C79.236 13.039 79.2025 12.74 79.2314 12.4438ZM82.5644 12.4438C82.5644 11.4677 82.1259 10.8969 81.3564 10.8969C80.5839 10.8969 80.1494 11.4677 80.1494 12.4438C80.1494 13.4277 80.5839 13.9941 81.3564 13.9941C82.1259 13.9941 82.5644 13.4238 82.5644 12.4438Z" fill="white"/>
<path d="M84.6705 10.1963H85.526V10.9117H85.5924C85.7051 10.6547 85.8951 10.4394 86.1359 10.2956C86.3768 10.1518 86.6566 10.0867 86.9362 10.1094C87.1553 10.0929 87.3753 10.126 87.5799 10.2061C87.7845 10.2862 87.9684 10.4113 88.1181 10.5721C88.2678 10.733 88.3794 10.9254 88.4446 11.1352C88.5098 11.3451 88.5269 11.5669 88.4948 11.7842V14.6992H87.6061V12.0074C87.6061 11.2837 87.2916 10.9239 86.6344 10.9239C86.4856 10.9169 86.3371 10.9423 86.1991 10.9981C86.061 11.0539 85.9367 11.1389 85.8346 11.2473C85.7324 11.3557 85.6549 11.4849 85.6074 11.626C85.5599 11.7672 85.5434 11.9169 85.5592 12.065V14.6993H84.6705V10.1963Z" fill="white"/>
<path d="M93.5162 9.07227V10.2139H94.4918V10.9624H93.5162V13.2778C93.5162 13.7495 93.7106 13.9561 94.153 13.9561C94.2662 13.9557 94.3794 13.9488 94.4918 13.9355V14.6758C94.3322 14.7043 94.1705 14.7195 94.0084 14.7212C93.0201 14.7212 92.6266 14.3735 92.6266 13.5054V10.9624H91.9117V10.2138H92.6266V9.07227H93.5162Z" fill="white"/>
<path d="M95.7057 8.4375H96.5865V10.919H96.6569C96.775 10.6596 96.9702 10.443 97.2159 10.2987C97.4616 10.1543 97.7458 10.0893 98.0299 10.1123C98.2478 10.1004 98.4657 10.1368 98.668 10.2189C98.8703 10.3009 99.0519 10.4266 99.2001 10.5869C99.3482 10.7473 99.4591 10.9383 99.5249 11.1465C99.5907 11.3546 99.6097 11.5747 99.5806 11.791V14.6982H98.6911V12.0103C98.6911 11.291 98.3561 10.9268 97.7282 10.9268C97.5754 10.9142 97.4218 10.9352 97.278 10.9883C97.1343 11.0413 97.0038 11.1252 96.8958 11.2339C96.7878 11.3426 96.7049 11.4737 96.6528 11.6178C96.6008 11.7619 96.5808 11.9157 96.5944 12.0683V14.6982H95.7057L95.7057 8.4375Z" fill="white"/>
<path d="M104.761 13.4815C104.64 13.8931 104.379 14.249 104.022 14.4872C103.665 14.7253 103.236 14.8305 102.81 14.7842C102.513 14.7921 102.218 14.7353 101.946 14.6177C101.673 14.5002 101.43 14.3248 101.232 14.1036C101.034 13.8825 100.886 13.6209 100.8 13.3371C100.713 13.0533 100.689 12.754 100.73 12.46C100.69 12.1652 100.715 11.8652 100.801 11.5805C100.888 11.2959 101.034 11.0331 101.231 10.81C101.428 10.587 101.67 10.4088 101.942 10.2876C102.214 10.1664 102.508 10.105 102.806 10.1075C104.059 10.1075 104.815 10.9635 104.815 12.3775V12.6876H101.635V12.7374C101.621 12.9026 101.642 13.069 101.696 13.2257C101.75 13.3825 101.836 13.5262 101.949 13.6476C102.062 13.7691 102.199 13.8656 102.352 13.931C102.504 13.9964 102.668 14.0292 102.834 14.0274C103.047 14.0529 103.262 14.0146 103.453 13.9174C103.644 13.8202 103.801 13.6685 103.906 13.4815L104.761 13.4815ZM101.635 12.0303H103.909C103.921 11.8792 103.9 11.7274 103.849 11.5847C103.798 11.442 103.718 11.3115 103.614 11.2016C103.509 11.0918 103.383 11.005 103.243 10.9468C103.103 10.8886 102.953 10.8604 102.801 10.8638C102.647 10.8619 102.495 10.8908 102.352 10.9487C102.21 11.0067 102.081 11.0925 101.972 11.2012C101.863 11.3099 101.778 11.4393 101.72 11.5817C101.662 11.7241 101.633 11.8766 101.635 12.0303Z" fill="white"/>
</g>
<defs>
<clipPath id="clip0_9114_5400">
<rect width="119.664" height="40" fill="white"/>
</clipPath>
</defs>
</svg>
