<svg width="136" height="40" viewBox="0 0 136 40" fill="none" xmlns="http://www.w3.org/2000/svg">
<g clip-path="url(#clip0_9114_5435)">
<path d="M130.664 0H5.66406C2.90264 0 0.664062 2.23858 0.664062 5V35C0.664062 37.7614 2.90264 40 5.66406 40H130.664C133.425 40 135.664 37.7614 135.664 35V5C135.664 2.23858 133.425 0 130.664 0Z" fill="black"/>
<path d="M130.664 0.8C132.984 0.8 134.864 2.68 134.864 5V35C134.864 37.32 132.984 39.2 130.664 39.2H5.66406C3.34406 39.2 1.46406 37.32 1.46406 35V5C1.46406 2.68 3.34406 0.8 5.66406 0.8H130.664ZM130.664 0H5.66406C2.91406 0 0.664062 2.25 0.664062 5V35C0.664062 37.75 2.91406 40 5.66406 40H130.664C133.414 40 135.664 37.75 135.664 35V5C135.664 2.25 133.414 0 130.664 0Z" fill="#A6A6A6"/>
<path d="M48.0817 10.2382C48.0817 11.0782 47.8317 11.7482 47.3317 12.2382C46.7717 12.8282 46.0317 13.1282 45.1317 13.1282C44.2317 13.1282 43.5317 12.8282 42.9217 12.2282C42.3117 11.6282 42.0117 10.8782 42.0117 9.99816C42.0117 9.11816 42.3117 8.36816 42.9217 7.76816C43.5317 7.16816 44.2617 6.86816 45.1317 6.86816C45.5617 6.86816 45.9717 6.94816 46.3617 7.11816C46.7517 7.28816 47.0617 7.50816 47.3017 7.78816L46.7717 8.31816C46.3717 7.84816 45.8317 7.60816 45.1317 7.60816C44.5017 7.60816 43.9517 7.82816 43.4917 8.27816C43.0317 8.71816 42.8017 9.29816 42.8017 10.0082C42.8017 10.7182 43.0317 11.2982 43.4917 11.7382C43.9517 12.1782 44.5017 12.4082 45.1317 12.4082C45.8017 12.4082 46.3617 12.1882 46.8117 11.7382C47.1017 11.4482 47.2717 11.0382 47.3117 10.5182H45.1317V9.79816H48.0417C48.0717 9.95816 48.0817 10.1082 48.0817 10.2482V10.2382Z" fill="white" stroke="white" stroke-width="0.2" stroke-miterlimit="10"/>
<path d="M52.6919 7.74H49.9619V9.64H52.4219V10.36H49.9619V12.26H52.6919V13H49.1919V7H52.6919V7.74Z" fill="white" stroke="white" stroke-width="0.2" stroke-miterlimit="10"/>
<path d="M55.9412 13H55.1712V7.74H53.4912V7H57.6112V7.74H55.9312V13H55.9412Z" fill="white" stroke="white" stroke-width="0.2" stroke-miterlimit="10"/>
<path d="M60.6006 13V7H61.3706V13H60.6006Z" fill="white" stroke="white" stroke-width="0.2" stroke-miterlimit="10"/>
<path d="M64.7913 13H64.0213V7.74H62.3413V7H66.4613V7.74H64.7813V13H64.7913Z" fill="white" stroke="white" stroke-width="0.2" stroke-miterlimit="10"/>
<path d="M74.2741 12.2182C73.6841 12.8282 72.9541 13.1282 72.0741 13.1282C71.1941 13.1282 70.4641 12.8282 69.8741 12.2182C69.2841 11.6082 68.9941 10.8682 68.9941 9.99816C68.9941 9.12816 69.2841 8.37816 69.8741 7.77816C70.4641 7.16816 71.1941 6.86816 72.0741 6.86816C72.9541 6.86816 73.6741 7.16816 74.2741 7.77816C74.8641 8.38816 75.1641 9.12816 75.1641 9.99816C75.1641 10.8682 74.8641 11.6182 74.2841 12.2182H74.2741ZM70.4441 11.7182C70.8841 12.1682 71.4341 12.3882 72.0741 12.3882C72.7141 12.3882 73.2641 12.1682 73.7041 11.7182C74.1441 11.2682 74.3741 10.6982 74.3741 9.99816C74.3741 9.29816 74.1541 8.72816 73.7041 8.27816C73.2641 7.82816 72.7141 7.60816 72.0741 7.60816C71.4341 7.60816 70.8841 7.82816 70.4441 8.27816C70.0041 8.72816 69.7741 9.29816 69.7741 9.99816C69.7741 10.6982 69.9941 11.2682 70.4441 11.7182Z" fill="white" stroke="white" stroke-width="0.2" stroke-miterlimit="10"/>
<path d="M76.2427 13V7H77.1827L80.1027 11.67H80.1327L80.1027 10.51V7H80.8727V13H80.0727L77.0227 8.11H76.9927L77.0227 9.27V13.01H76.2527L76.2427 13Z" fill="white" stroke="white" stroke-width="0.2" stroke-miterlimit="10"/>
<path d="M68.8017 21.7483C66.4517 21.7483 64.5317 23.5383 64.5317 25.9983C64.5317 28.4583 66.4517 30.2483 68.8017 30.2483C71.1517 30.2483 73.0717 28.4483 73.0717 25.9983C73.0717 23.5483 71.1517 21.7483 68.8017 21.7483ZM68.8017 28.5783C67.5117 28.5783 66.4017 27.5183 66.4017 25.9983C66.4017 24.4783 67.5117 23.4183 68.8017 23.4183C70.0917 23.4183 71.2017 24.4683 71.2017 25.9983C71.2017 27.5283 70.0917 28.5783 68.8017 28.5783ZM59.4817 21.7483C57.1317 21.7483 55.2117 23.5383 55.2117 25.9983C55.2117 28.4583 57.1317 30.2483 59.4817 30.2483C61.8317 30.2483 63.7517 28.4483 63.7517 25.9983C63.7517 23.5483 61.8317 21.7483 59.4817 21.7483ZM59.4817 28.5783C58.1917 28.5783 57.0817 27.5183 57.0817 25.9983C57.0817 24.4783 58.1917 23.4183 59.4817 23.4183C60.7717 23.4183 61.8817 24.4683 61.8817 25.9983C61.8817 27.5283 60.7717 28.5783 59.4817 28.5783ZM48.4017 23.0583V24.8583H52.7217C52.5917 25.8783 52.2517 26.6183 51.7417 27.1283C51.1117 27.7583 50.1317 28.4483 48.4117 28.4483C45.7517 28.4483 43.6717 26.3083 43.6717 23.6483C43.6717 20.9883 45.7517 18.8483 48.4117 18.8483C49.8417 18.8483 50.8917 19.4083 51.6617 20.1383L52.9317 18.8683C51.8517 17.8383 50.4217 17.0483 48.4017 17.0483C44.7617 17.0483 41.7017 20.0083 41.7017 23.6583C41.7017 27.3083 44.7617 30.2683 48.4017 30.2683C50.3717 30.2683 51.8517 29.6283 53.0117 28.4183C54.2017 27.2283 54.5717 25.5483 54.5717 24.1983C54.5717 23.7783 54.5417 23.3883 54.4717 23.0683H48.4017V23.0583ZM93.7117 24.4583C93.3617 23.5083 92.2817 21.7483 90.0717 21.7483C87.8617 21.7483 86.0617 23.4683 86.0617 25.9983C86.0617 28.3783 87.8617 30.2483 90.2817 30.2483C92.2317 30.2483 93.3617 29.0583 93.8217 28.3683L92.3717 27.3983C91.8917 28.1083 91.2317 28.5783 90.2817 28.5783C89.3317 28.5783 88.6517 28.1383 88.2217 27.2883L93.9117 24.9383L93.7217 24.4583H93.7117ZM87.9117 25.8783C87.8617 24.2383 89.1817 23.3983 90.1317 23.3983C90.8717 23.3983 91.5017 23.7683 91.7117 24.2983L87.9117 25.8783ZM83.2917 29.9983H85.1617V17.4983H83.2917V29.9983ZM80.2317 22.6983H80.1717C79.7517 22.1983 78.9517 21.7483 77.9317 21.7483C75.8017 21.7483 73.8517 23.6183 73.8517 26.0183C73.8517 28.4183 75.8017 30.2583 77.9317 30.2583C78.9517 30.2583 79.7517 29.8083 80.1717 29.2883H80.2317V29.8983C80.2317 31.5283 79.3617 32.3983 77.9617 32.3983C76.8217 32.3983 76.1117 31.5783 75.8217 30.8883L74.1917 31.5683C74.6617 32.6983 75.9017 34.0783 77.9617 34.0783C80.1517 34.0783 82.0017 32.7883 82.0017 29.6483V22.0083H80.2317V22.6983ZM78.0817 28.5783C76.7917 28.5783 75.7117 27.4983 75.7117 26.0183C75.7117 24.5383 76.7917 23.4283 78.0817 23.4283C79.3717 23.4283 80.3517 24.5283 80.3517 26.0183C80.3517 27.5083 79.3517 28.5783 78.0817 28.5783ZM102.472 17.4983H98.0017V29.9983H99.8717V25.2583H102.482C104.552 25.2583 106.582 23.7583 106.582 21.3783C106.582 18.9983 104.552 17.4983 102.482 17.4983H102.472ZM102.512 23.5183H99.8617V19.2283H102.512C103.912 19.2283 104.702 20.3883 104.702 21.3683C104.702 22.3483 103.912 23.5083 102.512 23.5083V23.5183ZM114.052 21.7283C112.702 21.7283 111.302 22.3283 110.722 23.6383L112.382 24.3283C112.732 23.6383 113.392 23.4083 114.082 23.4083C115.042 23.4083 116.032 23.9883 116.042 25.0183V25.1483C115.702 24.9583 114.982 24.6683 114.092 24.6683C112.302 24.6683 110.492 25.6483 110.492 27.4783C110.492 29.1483 111.952 30.2283 113.592 30.2283C114.842 30.2283 115.542 29.6683 115.972 29.0083H116.032V29.9783H117.832V25.1883C117.832 22.9683 116.172 21.7283 114.032 21.7283H114.052ZM113.822 28.5783C113.212 28.5783 112.362 28.2683 112.362 27.5183C112.362 26.5583 113.422 26.1883 114.342 26.1883C115.162 26.1883 115.552 26.3683 116.042 26.6083C115.902 27.7683 114.902 28.5883 113.822 28.5883V28.5783ZM124.402 21.9983L122.262 27.4183H122.202L119.982 21.9983H117.972L121.302 29.5783L119.402 33.7883H121.352L126.482 21.9983H124.412H124.402ZM107.602 29.9983H109.472V17.4983H107.602V29.9983Z" fill="white"/>
<path d="M21.3849 19.4197L10.7349 30.7197C11.0649 31.9497 12.1849 32.8497 13.5149 32.8497C14.0449 32.8497 14.5449 32.7097 14.9749 32.4497L15.0049 32.4297L26.9849 25.5197L21.3749 19.4097L21.3849 19.4197Z" fill="#EA4335"/>
<path d="M32.155 17.5002H32.145L26.975 14.4902L21.145 19.6802L26.995 25.5302L32.145 22.5602C33.045 22.0702 33.655 21.1202 33.655 20.0302C33.655 18.9402 33.055 17.9902 32.155 17.5102V17.5002Z" fill="#FBBC04"/>
<path d="M10.7348 9.28271C10.6748 9.52271 10.6348 9.76272 10.6348 10.0227V29.9927C10.6348 30.2527 10.6648 30.4927 10.7348 30.7327L21.7448 19.7227L10.7348 9.28271Z" fill="#4285F4"/>
<path d="M21.4649 20.0016L26.9749 14.4916L15.0049 7.5516C14.5749 7.2916 14.0649 7.1416 13.5149 7.1416C12.1849 7.1416 11.0649 8.0516 10.7349 9.2716L21.4649 19.9916V20.0016Z" fill="#34A853"/>
</g>
<defs>
<clipPath id="clip0_9114_5435">
<rect width="135" height="40" fill="white" transform="translate(0.664062)"/>
</clipPath>
</defs>
</svg>
